<?xml version="1.0" encoding="UTF-8"?> <svg xmlns="http://www.w3.org/2000/svg" width="174.902" height="51.128" viewBox="0 0 174.902 51.128"><g id="Group_5444" data-name="Group 5444" transform="translate(-1069.224 -42)"><g id="Group_14" data-name="Group 14" transform="translate(1069.224 42)"><g id="Group_12" data-name="Group 12" transform="translate(61.82)"><g id="Group_7" data-name="Group 7" transform="translate(0 1.755)"><g id="Group_5" data-name="Group 5" transform="translate(0 1.502)"><path id="Path_13" data-name="Path 13" d="M528.749,245.773l-1.726-1-1.726,1,.508-2.088-1.415-1.268,1.824-.133.809-1.824.809,1.824,1.987.2-1.489,1.329Z" transform="translate(-524.39 -240.46)" fill="#f20017"></path></g><g id="Group_6" data-name="Group 6" transform="translate(10.444)"><path id="Path_14" data-name="Path 14" d="M585.633,237.594l-1.726-1-1.728,1,.508-2.088-1.413-1.27,1.824-.133.809-1.822.809,1.822,1.985.207-1.487,1.329Z" transform="translate(-581.275 -232.281)" fill="#f20017"></path></g></g><g id="Group_10" data-name="Group 10" transform="translate(35.172 1.755)"><g id="Group_8" data-name="Group 8" transform="translate(10.441 1.502)"><path id="Path_15" data-name="Path 15" d="M773.9,245.773l1.726-1,1.726,1-.508-2.088,1.415-1.268-1.824-.133-.809-1.824-.809,1.824-1.987.2,1.489,1.329Z" transform="translate(-772.833 -240.46)" fill="#f20017"></path></g><g id="Group_9" data-name="Group 9"><path id="Path_16" data-name="Path 16" d="M717.03,237.594l1.726-1,1.728,1-.508-2.088,1.413-1.27-1.824-.133-.809-1.822-.809,1.822-1.984.207,1.487,1.329Z" transform="translate(-715.963 -232.281)" fill="#f20017"></path></g></g><g id="Group_11" data-name="Group 11" transform="translate(21.731)"><path id="Path_17" data-name="Path 17" d="M648.844,230.137l-2.411-1.4-2.411,1.4.71-2.914-1.975-1.77,2.547-.187,1.13-2.544,1.129,2.544,2.774.289-2.078,1.854Z" transform="translate(-642.757 -222.721)" fill="#f20017"></path></g></g><g id="Group_13" data-name="Group 13" transform="translate(0 11.721)"><path id="Path_18" data-name="Path 18" d="M196.62,351.234c-6.783,1.281-9.85-2.271-8.719-7.7l2.833-13.6a15.522,15.522,0,0,1,12.018-11.751c6.181-1.263,8.681,2.011,7.822,7.251l-.5,3.069-5.834,1.163.519-2.927c.385-2.172-.581-3.343-2.973-2.861a5.281,5.281,0,0,0-4.3,4.22l-2.842,14.682c-.384,1.983.616,3.2,3.13,2.72a5.221,5.221,0,0,0,4.421-4.315l.519-2.927,5.946-1.163-.5,3.069C207.3,345.408,203.271,349.972,196.62,351.234Z" transform="translate(-187.671 -312.16)" fill="#f20017"></path><path id="Path_19" data-name="Path 19" d="M326.643,328.861l1.563-12.6-7.6.934-1.78,12.6-6.763.8,4.9-31.442,6.3-.8-1.84,13.03,7.5-.934,1.616-13.03,6.246-.8-3.433,31.442Z" transform="translate(-289.222 -294.77)" fill="#f20017"></path><path id="Path_20" data-name="Path 20" d="M456.359,321.821l-.851-6.149-6.344.406-1.849,6.314-6.26.394,10.043-31.9,6.935-.47,4.978,30.986Zm-2.573-22.432-3.231,11.622,4.454-.288Z" transform="translate(-394.535 -289.708)" fill="#f20017"></path><path id="Path_21" data-name="Path 21" d="M590.508,318.319c-2.692.039-3.674-1.835-3.615-4.762l.1-5.146c.034-1.652-.749-3.057-2.6-3.029l-3.47.051-.443,12.841-6.639.095,1.554-31.442,10.353-.159c4.656-.072,7.439,2.812,7.41,7.344l-.021,3.4a5.1,5.1,0,0,1-3.885,5.3,5.114,5.114,0,0,1,3.955,5.134l-.031,5.146a3.947,3.947,0,0,0,1.274,3.192l-.006,1.983ZM587.1,294.581c.032-1.558-.558-2.54-2.174-2.515l-3.538.054-.3,8.639,3.344-.05c1.649-.024,2.559-.935,2.6-2.823Z" transform="translate(-502.95 -286.729)" fill="#f20017"></path><path id="Path_22" data-name="Path 22" d="M701.291,318l-.106-31.442,6.164.2.468,25.635,10.037.307.239,5.807Z" transform="translate(-606.907 -286.563)" fill="#f20017"></path><path id="Path_23" data-name="Path 23" d="M802.089,321.656,800.6,290.214l16.082,1.284.487,5.665-10.029-.789.43,6.893,7.015.543.4,5.1-7.1-.543.492,7.884,10.5.789.508,5.9Z" transform="translate(-688.067 -289.544)" fill="#f20017"></path><path id="Path_24" data-name="Path 24" d="M910.332,317.73l1.581,13.03-6.727-.851-1.389-13.03-9.461-19.435,6.538.892,5.842,13.017,2.786-11.845,6.293.851Z" transform="translate(-764.596 -295.446)" fill="#f20017"></path><path id="Path_25" data-name="Path 25" d="M1034.1,352.224c-6.243-1.188-10.678-5.482-11.433-10.864l-.225-1.605,6.081,1.189.159,1.038a5.284,5.284,0,0,0,4.4,4.786c2.41.463,3.361-.68,2.993-2.851-.384-2.266-2.387-3.98-6.264-6.567-3.995-2.756-8.239-6.029-8.918-10.844s1.927-8.5,7.948-7.263a13.934,13.934,0,0,1,10.678,10.717l.234,1.275-5.9-1.17-.168-.991a5.234,5.234,0,0,0-4.019-4.457c-1.886-.381-2.906.6-2.614,2.49.344,2.219,2.265,3.791,6.494,6.64,4.707,3.251,8.175,6.3,9.018,10.875C1043.5,349.719,1040.473,353.431,1034.1,352.224Z" transform="translate(-867.831 -313.047)" fill="#f20017"></path></g></g></g></svg> 