<svg width="191" height="50" viewBox="0 0 191 50" fill="none" xmlns="http://www.w3.org/2000/svg">
    <g clip-path="url(#clip0_2070_36052)">
        <path d="M11.1636 0H0V49.0209H11.1636V0Z" fill="#290350" />
        <path
            d="M38.0507 33.1912C38.0507 37.1826 35.5398 39.703 32.2588 39.703C28.9779 39.703 27.1671 37.1123 27.1671 33.7487V14.4945H15.9334V34.1001C15.9334 43.9754 20.9552 49.9953 28.4925 49.9953C32.5389 49.9953 35.9552 48.2432 38.3307 45.3715C38.8954 46.7113 39.7122 47.92 40.7249 48.9319C40.7529 48.96 40.7809 48.9834 40.8089 49.0115H49.2143V14.4945H38.0507V33.1912Z"
            fill="#290350" />
        <path
            d="M95.0216 13.5154C90.4152 13.5154 86.6489 15.2675 84.068 18.2751C82.1172 15.3331 79.0462 13.5154 75.2799 13.5154C72.139 13.5154 68.2326 14.7053 65.3717 17.9284C64.8303 16.6448 64.0556 15.483 63.1035 14.4992H54.2781V49.0209H65.4417V30.3945C65.4417 26.2625 67.3272 23.8124 70.3935 23.8124C73.4597 23.8124 75.3452 25.9815 75.3452 29.4154V49.0209H86.5789V29.5512C86.5789 25.9112 88.8098 23.8078 91.8107 23.8078C94.8116 23.8078 96.4824 25.9768 96.4824 29.4107V49.0162H107.646V26.8153C107.646 18.692 102.554 13.5107 95.017 13.5107L95.0216 13.5154Z"
            fill="#290350" />
        <path
            d="M129.689 13.5154C119.435 13.5154 111.342 21.5685 111.342 31.7905C111.342 42.0126 119.435 49.9953 129.689 49.9953C139.942 49.9953 148.035 42.0126 148.035 31.7905C148.035 21.5685 139.942 13.5154 129.689 13.5154ZM129.689 39.6374C125.432 39.6374 122.226 36.3441 122.226 31.7952C122.226 27.2464 125.437 23.8827 129.689 23.8827C133.94 23.8827 137.151 27.2417 137.151 31.7952C137.151 36.3488 133.94 39.6374 129.689 39.6374Z"
            fill="#290350" />
        <path
            d="M161.784 24.0888C161.784 22.6178 163.18 21.8495 165.205 21.8495C166.559 21.8495 167.847 22.407 168.668 23.2315C169.172 23.7375 169.723 24.1966 170.32 24.5995C170.414 24.6651 170.516 24.726 170.614 24.7869H180.41C179.575 17.2257 173.433 13.5107 165.34 13.5107C156.828 13.5107 151.386 18.6218 151.386 25.2038C151.386 38.2273 170.012 34.517 170.012 39.0706C170.012 40.401 168.897 41.3801 166.246 41.3801C164.188 41.3801 162.75 40.654 162.027 39.5906C161.537 39.108 161.005 38.6677 160.431 38.2788C160.337 38.2133 160.235 38.1524 160.137 38.0915H150.961C151.381 45.6526 157.378 49.9953 166.171 49.9953C174.964 49.9953 180.821 45.0248 180.821 37.8104C180.821 24.7166 161.775 28.4972 161.775 24.0842L161.784 24.0888Z"
            fill="#290350" />
        <path d="M183.509 21.3904H182.413V20.4628H185.591V21.3904H184.48V24.7868H183.509V21.3904Z"
            fill="#290350" />
        <path
            d="M187.509 22.1212V24.7868H186.543V20.4628H187.425L188.774 22.3273L190.123 20.4628H191.005V24.7868H190.034V22.1212L188.778 23.8686L187.518 22.1212H187.509Z"
            fill="#290350" />
    </g>
    <defs>
        <clipPath id="clip0_2070_36052">
            <rect width="191" height="50" fill="white" />
        </clipPath>
    </defs>
</svg>